<svg width="19" height="18" viewBox="0 0 19 18" fill="none" xmlns="http://www.w3.org/2000/svg">
<path d="M17.625 4.88031C17.5231 4.51673 17.3245 4.18757 17.0505 3.92781C16.7687 3.66006 16.4233 3.46853 16.047 3.37131C14.6385 3.00006 8.99547 3.00006 8.99547 3.00006C6.64297 2.97329 4.29105 3.09101 1.95297 3.35256C1.57662 3.45697 1.2319 3.65277 0.949475 3.92256C0.671975 4.18956 0.470975 4.51881 0.365975 4.87956C0.113744 6.23836 -0.00880638 7.61807 -2.53939e-05 9.00006C-0.00902539 10.3808 0.113225 11.7601 0.365975 13.1206C0.468725 13.4798 0.668975 13.8076 0.947224 14.0723C1.22547 14.3371 1.57197 14.5283 1.95297 14.6296C3.38022 15.0001 8.99547 15.0001 8.99547 15.0001C11.351 15.0269 13.7059 14.9091 16.047 14.6476C16.4233 14.5503 16.7687 14.3588 17.0505 14.0911C17.328 13.8263 17.5252 13.4971 17.6242 13.1386C17.883 11.7803 18.0089 10.4 18 9.01731C18.0194 7.62876 17.8938 6.24198 17.625 4.87956V4.88031ZM7.20147 11.5681V6.43281L11.8965 9.00081L7.20147 11.5681Z" fill="white"/>
</svg>
