<svg width="25" height="22" viewBox="0 0 25 22" fill="none" xmlns="http://www.w3.org/2000/svg">
<path d="M14.5351 7.65598H5.46797C5.2962 7.65598 5.13146 7.59442 5.01001 7.48482C4.88855 7.37523 4.82031 7.22659 4.82031 7.07161V4.7341C4.82031 4.57911 4.88855 4.43047 5.01001 4.32088C5.13146 4.21129 5.2962 4.14972 5.46797 4.14972H14.5351C14.7069 4.14972 14.8716 4.21129 14.9931 4.32088C15.1145 4.43047 15.1828 4.57911 15.1828 4.7341V7.07161C15.1828 7.22659 15.1145 7.37523 14.9931 7.48482C14.8716 7.59442 14.7069 7.65598 14.5351 7.65598ZM6.11562 6.48723H13.8875V5.28341H6.11562V6.48723Z" fill="white"/>
<path d="M14.5351 8.87146H5.46797C5.2962 8.87146 5.13146 8.93303 5.01001 9.04262C4.88855 9.15221 4.82031 9.30085 4.82031 9.45584V11.7466C4.82031 11.9016 4.88855 12.0502 5.01001 12.1598C5.13146 12.2694 5.2962 12.331 5.46797 12.331H12.8253L15.1828 10.1688V9.45584C15.1828 9.30085 15.1145 9.15221 14.9931 9.04262C14.8716 8.93303 14.7069 8.87146 14.5351 8.87146ZM13.8875 11.1622H6.11562V9.99347H13.8875V11.1622Z" fill="white"/>
<path d="M8.09747 19.0572V19.0221L8.30472 18.2098H3.52504V2.98095H16.4781V8.97082L17.7734 7.86635V2.39657C17.7734 2.24159 17.7052 2.09295 17.5837 1.98336C17.4623 1.87376 17.2975 1.81219 17.1258 1.81219H2.87739C2.70562 1.81219 2.54089 1.87376 2.41943 1.98336C2.29797 2.09295 2.22974 2.24159 2.22974 2.39657V18.7591C2.22974 18.9141 2.29797 19.0628 2.41943 19.1724C2.54089 19.282 2.70562 19.3435 2.87739 19.3435H8.05861C8.06395 19.2474 8.07694 19.1517 8.09747 19.0572Z" fill="white"/>
<path d="M15.1827 11.8459L14.6775 12.3076C14.8028 12.2843 14.9177 12.228 15.0076 12.1458C15.0975 12.0637 15.1584 11.9593 15.1827 11.8459Z" fill="white"/>
<path d="M4.82031 16.3866C4.82031 16.5416 4.88855 16.6902 5.01001 16.7998C5.13146 16.9094 5.2962 16.971 5.46797 16.971H8.60261L8.7969 16.2113L8.8811 15.8899V15.8606H6.11562V14.6685H10.2217L11.517 13.4998H5.46797C5.2962 13.4998 5.13146 13.5613 5.01001 13.6709C4.88855 13.7805 4.82031 13.9291 4.82031 14.0841V16.3866Z" fill="white"/>
<path d="M22.6242 10.385L20.4416 8.41564C20.3447 8.328 20.2297 8.25847 20.103 8.21102C19.9763 8.16358 19.8404 8.13916 19.7033 8.13916C19.5661 8.13916 19.4303 8.16358 19.3036 8.21102C19.1769 8.25847 19.0618 8.328 18.9649 8.41564L10.0856 16.4742L9.35378 19.2851C9.32638 19.4063 9.32577 19.5313 9.35197 19.6528C9.37817 19.7742 9.43068 19.8899 9.50648 19.993C9.58229 20.0961 9.6799 20.1848 9.79373 20.2538C9.90755 20.3229 10.0354 20.371 10.1698 20.3954C10.2366 20.4014 10.3038 20.4014 10.3706 20.3954C10.4499 20.4071 10.5309 20.4071 10.6102 20.3954L13.7513 19.7701L22.6242 11.7466C22.7211 11.6597 22.798 11.5564 22.8505 11.4425C22.903 11.3287 22.9301 11.2066 22.9301 11.0833C22.9301 10.96 22.903 10.838 22.8505 10.7241C22.798 10.6103 22.7211 10.507 22.6242 10.4201V10.385ZM13.0907 18.7065L10.7203 19.1799L11.2967 17.0586L17.9546 10.9869L19.781 12.6348L13.0907 18.7065ZM20.5128 11.9745L18.6865 10.3266L19.7162 9.40908L21.5556 11.0687L20.5128 11.9745Z" fill="white"/>
</svg>
