<svg width="14" height="14" viewBox="0 0 14 14" fill="none" xmlns="http://www.w3.org/2000/svg">
<g clip-path="url(#clip0_101_1730)">
<path d="M11.7643 6.14352C11.7643 9.94475 6.87704 13.2029 6.87704 13.2029C6.87704 13.2029 1.98975 9.94475 1.98975 6.14352C1.98975 4.84733 2.50466 3.60423 3.4212 2.68768C4.33775 1.77114 5.58085 1.25623 6.87704 1.25623C8.17323 1.25623 9.41634 1.77114 10.3329 2.68768C11.2494 3.60423 11.7643 4.84733 11.7643 6.14352Z" stroke="#2F3F93" stroke-linecap="round" stroke-linejoin="round"/>
<path d="M6.87702 7.7726C7.77675 7.7726 8.50612 7.04323 8.50612 6.1435C8.50612 5.24378 7.77675 4.5144 6.87702 4.5144C5.9773 4.5144 5.24792 5.24378 5.24792 6.1435C5.24792 7.04323 5.9773 7.7726 6.87702 7.7726Z" stroke="#2F3F93" stroke-linecap="round" stroke-linejoin="round"/>
</g>
<defs>
<clipPath id="clip0_101_1730">
<rect width="13.0328" height="13.0328" fill="white" transform="translate(0.360596 0.713135)"/>
</clipPath>
</defs>
</svg>
