<svg width="74" height="63" viewBox="0 0 74 63" fill="none" xmlns="http://www.w3.org/2000/svg">
<path d="M10.5 21V63H-3.5V21H10.5ZM24.5 63C22.6435 63 20.863 62.2625 19.5503 60.9497C18.2375 59.637 17.5 57.8565 17.5 56V21C17.5 19.075 18.27 17.325 19.565 16.065L42.595 -7L46.305 -3.29C47.25 -2.345 47.845 -1.05 47.845 0.385L47.74 1.505L44.415 17.5H66.5C70.385 17.5 73.5 20.65 73.5 24.5V31.5C73.5 32.41 73.325 33.25 73.01 34.055L62.44 58.73C61.39 61.25 58.905 63 56 63H24.5ZM24.5 56H56.105L66.5 31.5V24.5H35.735L39.69 5.88L24.5 21.105V56Z" fill="#404F9B"/>
</svg>
