<svg width="77" height="60" viewBox="0 0 77 60" fill="none" xmlns="http://www.w3.org/2000/svg">
<path d="M69.625 2.29167C65.7863 1.08125 61.5671 0.5625 57.5208 0.5625C50.7771 0.5625 43.5146 1.94583 38.5 5.75C33.4854 1.94583 26.2229 0.5625 19.4792 0.5625C12.7354 0.5625 5.47292 1.94583 0.458336 5.75V56.4146C0.458336 57.2792 1.32292 58.1438 2.1875 58.1438C2.53334 58.1438 2.70625 57.9708 3.05209 57.9708C7.72084 55.7229 14.4646 54.1667 19.4792 54.1667C26.2229 54.1667 33.4854 55.55 38.5 59.3542C43.1688 56.4146 51.6417 54.1667 57.5208 54.1667C63.2271 54.1667 69.1063 55.2042 73.9479 57.7979C74.2938 57.9708 74.4667 57.9708 74.8125 57.9708C75.6771 57.9708 76.5417 57.1063 76.5417 56.2417V5.75C74.4667 4.19375 72.2188 3.15625 69.625 2.29167ZM69.625 48.9792C65.8208 47.7688 61.6708 47.25 57.5208 47.25C51.6417 47.25 43.1688 49.4979 38.5 52.4375V12.6667C43.1688 9.72708 51.6417 7.47917 57.5208 7.47917C61.6708 7.47917 65.8208 7.99792 69.625 9.20833V48.9792Z" fill="#3F4D99"/>
</svg>
