<svg width="54" height="54" viewBox="0 0 54 54" fill="none" xmlns="http://www.w3.org/2000/svg">
<path d="M10.86 23.37C15.18 31.86 22.14 38.82 30.63 43.14L37.23 36.54C38.07 35.7 39.24 35.46 40.29 35.79C43.65 36.9 47.25 37.5 51 37.5C51.7957 37.5 52.5587 37.8161 53.1213 38.3787C53.6839 38.9413 54 39.7043 54 40.5V51C54 51.7957 53.6839 52.5587 53.1213 53.1213C52.5587 53.6839 51.7957 54 51 54C37.474 54 24.5019 48.6268 14.9376 39.0624C5.3732 29.4981 0 16.526 0 3C0 2.20435 0.31607 1.44129 0.87868 0.87868C1.44129 0.31607 2.20435 0 3 0H13.5C14.2956 0 15.0587 0.31607 15.6213 0.87868C16.1839 1.44129 16.5 2.20435 16.5 3C16.5 6.75 17.1 10.35 18.21 13.71C18.54 14.76 18.3 15.93 17.46 16.77L10.86 23.37Z" fill="#404E9A"/>
</svg>
