<svg width="66" height="69" viewBox="0 0 66 69" fill="none" xmlns="http://www.w3.org/2000/svg">
<path d="M52.9775 42.36L59.64 49.0225L39.945 68.75H33.25V62.055L52.9775 42.36ZM59.38 36.6725C59.835 36.6725 60.2575 36.8675 60.615 37.225L64.775 41.385C65.49 42.0675 65.49 43.205 64.775 43.8875L61.525 47.1375L54.8625 40.475L58.1125 37.225C58.47 36.8675 58.925 36.6725 59.38 36.6725ZM46.25 7V26.5L39.75 20L33.25 26.5V7H20.25V59H26.75V65.5H13.75C10.3375 65.5 7.25 62.4125 7.25 59V55.75H0.75V49.25H7.25V36.25H0.75V29.75H7.25V16.75H0.75V10.25H7.25V7C7.25 3.3925 10.175 0.5 13.75 0.5H52.75C56.1625 0.5 59.25 3.5875 59.25 7V26.5L52.75 33V7H46.25ZM7.25 10.25V16.75H13.75V10.25H7.25ZM7.25 29.75V36.25H13.75V29.75H7.25ZM7.25 49.25V55.75H13.75V49.25H7.25Z" fill="#3D4D99"/>
</svg>
